<?xml version="1.0" encoding="UTF-8"?>
<svg version="1.1" xmlns="http://www.w3.org/2000/svg" width="445" height="222">
<path d="M0 0 C146.85 0 293.7 0 445 0 C445 73.26 445 146.52 445 222 C298.15 222 151.3 222 0 222 C0 148.74 0 75.48 0 0 Z " fill="#FEFEFE" transform="translate(0,0)"/>
<path d="M0 0 C4.81256452 -0.12109863 9.62407129 -0.19926539 14.43780518 -0.25854492 C15.70898193 -0.28827393 16.98015869 -0.31800293 18.28985596 -0.34863281 C19.47434326 -0.35628662 20.65883057 -0.36394043 21.87921143 -0.37182617 C23.43877563 -0.39369995 23.43877563 -0.39369995 25.02984619 -0.41601562 C28.65373084 0.18252388 30.31797857 1.45691032 32.87530518 4.05395508 C33.32843018 7.47192383 33.32843018 7.47192383 33.12530518 11.24145508 C33.02244068 13.51148754 32.93407883 15.78235341 32.87530518 18.05395508 C33.20530518 18.38395508 33.53530518 18.71395508 33.87530518 19.05395508 C34.13823573 23.08555699 34.16935361 24.61288242 31.87530518 28.05395508 C31.34165175 34.42231111 31.34165175 34.42231111 33.87530518 40.05395508 C35.20806724 40.72176305 36.54149326 41.38824644 37.87530518 42.05395508 C55.52728086 54.35790645 55.52728086 54.35790645 58.87530518 61.05395508 C59.86698052 68.39737379 58.86922977 73.28499999 54.67608643 79.37426758 C52.4057571 81.49192834 50.96107264 81.91391242 47.87530518 82.05395508 C42.44246935 78.18828344 42.44246935 78.18828344 40.87530518 75.05395508 C39.39030518 74.55895508 39.39030518 74.55895508 37.87530518 74.05395508 C37.87530518 69.10395508 37.87530518 64.15395508 37.87530518 59.05395508 C32.86328728 61.33645717 32.86328728 61.33645717 32.10577393 64.25317383 C32.03844257 68.15227123 32.12471124 70.94781664 34.35968018 74.24145508 C36.42494123 76.3562824 38.5619745 78.21406812 40.87530518 80.05395508 C41.61909424 80.64950195 42.3628833 81.24504883 43.12921143 81.85864258 C44.61861515 83.02426288 46.11731122 84.17811243 47.62530518 85.31958008 C57.19733907 92.69802287 57.19733907 92.69802287 58.87530518 96.05395508 C59.38227547 101.60569537 59.68681207 106.45992368 57.12530518 111.49145508 C56.38280518 112.33708008 55.64030518 113.18270508 54.87530518 114.05395508 C54.19468018 115.00270508 53.51405518 115.95145508 52.81280518 116.92895508 C52.17343018 117.63020508 51.53405518 118.33145508 50.87530518 119.05395508 C49.88530518 119.05395508 48.89530518 119.05395508 47.87530518 119.05395508 C47.87530518 115.75395508 47.87530518 112.45395508 47.87530518 109.05395508 C48.86530518 108.72395508 49.85530518 108.39395508 50.87530518 108.05395508 C50.8623751 104.30423302 50.70276885 100.7191948 49.87530518 97.05395508 C47.11802703 94.52082539 47.11802703 94.52082539 43.87530518 93.05395508 C42.8688757 91.72546816 41.86838338 90.39245179 40.87530518 89.05395508 C40.1147583 88.59762695 39.35421143 88.14129883 38.57061768 87.67114258 C32.39561791 83.96614272 26.01314092 78.60248185 22.87530518 72.05395508 C21.9445281 66.68575239 22.90596184 62.6615568 25.87530518 58.05395508 C28.25030518 55.11645508 28.25030518 55.11645508 30.87530518 53.05395508 C35.7703549 53.48277762 39.24491155 55.54422913 43.04718018 58.53442383 C46.69311139 63.55926492 45.49030397 70.15452221 44.87530518 76.05395508 C48.66118419 73.5603254 48.66118419 73.5603254 50.53936768 69.61645508 C50.59127562 63.9779954 50.59127562 63.9779954 47.37530518 59.55395508 C46.55030518 59.05895508 45.72530518 58.56395508 44.87530518 58.05395508 C44.87530518 57.39395508 44.87530518 56.73395508 44.87530518 56.05395508 C44.32616455 55.97274414 43.77702393 55.8915332 43.21124268 55.80786133 C36.08873292 53.5091249 29.04457829 46.17857563 24.83233643 40.09692383 C23.1172836 36.43581105 23.21033408 32.98332972 23.87530518 29.05395508 C24.50130135 27.37159037 25.16282786 25.70155888 25.87530518 24.05395508 C26.04288275 20.84525275 26.04288275 20.84525275 25.87530518 18.05395508 C24.01905518 18.30145508 24.01905518 18.30145508 22.12530518 18.55395508 C7.19780192 20.21520345 7.19780192 20.21520345 2.87530518 18.05395508 C0.32915509 17.82222681 -2.19865707 17.63500979 -4.74969482 17.49145508 C-5.45610107 17.44827148 -6.16250732 17.40508789 -6.89031982 17.3605957 C-8.63488019 17.25450757 -10.37976179 17.15372619 -12.12469482 17.05395508 C-12.45469482 16.06395508 -12.78469482 15.07395508 -13.12469482 14.05395508 C-14.88813232 14.08489258 -14.88813232 14.08489258 -16.68719482 14.11645508 C-20.59882949 14.12342769 -24.26967427 13.6964585 -28.12469482 13.05395508 C-28.3386792 12.26633789 -28.55266357 11.4787207 -28.77313232 10.66723633 C-29.8934712 7.83065848 -29.8934712 7.83065848 -32.72625732 6.90942383 C-33.7239917 6.68899414 -34.72172607 6.46856445 -35.74969482 6.24145508 C-37.25403076 5.89147461 -37.25403076 5.89147461 -38.78875732 5.53442383 C-39.5596167 5.37586914 -40.33047607 5.21731445 -41.12469482 5.05395508 C-40.79469482 4.06395508 -40.46469482 3.07395508 -40.12469482 2.05395508 C-28.26629366 0.30314895 -16.20391867 0.38622509 -4.2376709 0.10400391 C-2.82508478 0.07054481 -1.41252695 0.03587009 0 0 Z " fill="#83C350" transform="translate(57.12469482421875,45.946044921875)"/>
<path d="M0 0 C0.71161789 0.00399811 1.42323578 0.00799622 2.15641785 0.01211548 C10.01907552 0.06930628 17.87880255 0.23579908 25.73828125 0.4609375 C26.83991608 0.49161819 26.83991608 0.49161819 27.96380615 0.5229187 C39.352203 0.85102853 50.630267 1.55105891 61.92578125 3.0859375 C62.42078125 4.5709375 62.42078125 4.5709375 62.92578125 6.0859375 C59.80667269 7.87869616 57.24895697 8.42884468 53.67578125 8.7109375 C52.33773437 8.82308594 52.33773437 8.82308594 50.97265625 8.9375 C50.2971875 8.98648438 49.62171875 9.03546875 48.92578125 9.0859375 C48.92578125 9.7459375 48.92578125 10.4059375 48.92578125 11.0859375 C49.58578125 11.0859375 50.24578125 11.0859375 50.92578125 11.0859375 C50.92578125 11.7459375 50.92578125 12.4059375 50.92578125 13.0859375 C44.85762603 14.31493096 39.12682937 15.36153964 32.92578125 15.0859375 C32.92578125 15.7459375 32.92578125 16.4059375 32.92578125 17.0859375 C29.05401311 19.02182157 24.28374167 18.56203315 20.015625 18.8046875 C17.05669639 18.74165675 17.05669639 18.74165675 15.92578125 20.0859375 C8.91947357 20.57609071 1.88813069 19.82717622 -5.07421875 19.0859375 C-5.84664144 20.92294539 -5.84664144 20.92294539 -6.07421875 23.0859375 C-5.605 23.54097656 -5.13578125 23.99601562 -4.65234375 24.46484375 C-3.07421875 26.0859375 -3.07421875 26.0859375 -2.74609375 28.86328125 C-2.771875 29.90613281 -2.79765625 30.94898438 -2.82421875 32.0234375 C-2.8396875 33.06371094 -2.85515625 34.10398438 -2.87109375 35.17578125 C-3.19743119 39.85119266 -3.42140463 41.43312338 -6.82421875 44.8359375 C-10.27433449 47.22447917 -11.07559754 47.59615961 -15.07421875 47.0859375 C-18.96361259 45.1418271 -21.61166725 42.66017698 -24.07421875 39.0859375 C-25.10102123 34.64261371 -25.1693011 30.43207127 -24.97290039 25.88476562 C-24.88624239 23.8246128 -24.87037912 21.7727544 -24.86523438 19.7109375 C-24.65558403 9.84274437 -24.65558403 9.84274437 -22.2175293 6.66894531 C-20.07421875 5.0859375 -20.07421875 5.0859375 -17.07421875 5.0859375 C-17.07421875 17.2959375 -17.07421875 29.5059375 -17.07421875 42.0859375 C-15.42421875 41.0959375 -13.77421875 40.1059375 -12.07421875 39.0859375 C-11.43286332 36.38896779 -11.43286332 36.38896779 -11.69921875 33.4609375 C-11.73273438 32.47867188 -11.76625 31.49640625 -11.80078125 30.484375 C-11.81642783 28.1362418 -11.81642783 28.1362418 -13.07421875 27.0859375 C-13.19500009 23.66833581 -12.97388449 20.25103768 -12.82421875 16.8359375 C-12.79714844 15.88074219 -12.77007812 14.92554688 -12.7421875 13.94140625 C-12.3575107 5.01938627 -12.3575107 5.01938627 -9.07421875 1.0859375 C-6.0746142 -0.41386478 -3.34167739 -0.02096126 0 0 Z " fill="#858FF6" transform="translate(119.07421875,44.9140625)"/>
<path d="M0 0 C5.1883957 3.28937505 9.75789539 6.50835982 14 11 C14.99 11.66 15.98 12.32 17 13 C17.29296875 15.6015625 17.29296875 15.6015625 17.1875 18.625 C17.14689453 20.12933594 17.14689453 20.12933594 17.10546875 21.6640625 C17.07066406 22.43492187 17.03585938 23.20578125 17 24 C16.01 24.495 16.01 24.495 15 25 C14.53248212 27.35599235 14.53248212 27.35599235 14.375 30.0625 C14.30023438 30.98160156 14.22546875 31.90070313 14.1484375 32.84765625 C14.09945312 33.55792969 14.05046875 34.26820313 14 35 C14.99 35.495 14.99 35.495 16 36 C15.01 36 14.02 36 13 36 C13 37.65 13 39.3 13 41 C13.66008057 41.0501123 14.32016113 41.10022461 15.00024414 41.15185547 C18.02162339 41.38547136 21.04201165 41.63014493 24.0625 41.875 C25.10083984 41.95363281 26.13917969 42.03226563 27.20898438 42.11328125 C32.72757618 42.56878407 37.74752082 43.22682263 43 45 C43 45.66 43 46.32 43 47 C36.63712576 49.78235884 31.22089145 50.52491509 24.3125 50.6875 C23.31009277 50.71948486 22.30768555 50.75146973 21.27490234 50.78442383 C18.1834033 50.87455004 15.09222836 50.94056265 12 51 C11.06236816 51.02191406 10.12473633 51.04382813 9.15869141 51.06640625 C-0.15652532 51.26612503 -9.35822824 51.16873534 -18.625 50.125 C-19.32995605 50.04660889 -20.03491211 49.96821777 -20.76123047 49.88745117 C-24.2001943 49.44188108 -26.05767498 48.96155001 -29 47 C-28.375 45.0625 -28.375 45.0625 -27 43 C-21.21109319 41.53347694 -15.06649525 41.66094299 -9.125 41.4375 C-5.45375 41.293125 -1.7825 41.14875 2 41 C2 31.43 2 21.86 2 12 C1.01 12.66 0.02 13.32 -1 14 C-1.5540567 19.88489457 -1.5540567 19.88489457 1 25 C1.1953125 27.26171875 1.1953125 27.26171875 1.125 29.6875 C1.10695313 30.49574219 1.08890625 31.30398437 1.0703125 32.13671875 C1.04710938 32.75160156 1.02390625 33.36648437 1 34 C-2.47339053 33.43491477 -3.95006976 32.37356664 -6.1875 29.6875 C-6.69667969 29.09324219 -7.20585938 28.49898437 -7.73046875 27.88671875 C-10.41725323 23.89374367 -10.31351649 19.70274733 -10 15 C-8.7461528 10.0675864 -7.10508378 6.2070967 -3 3 C-2.01 2.67 -1.02 2.34 0 2 C0 1.34 0 0.68 0 0 Z " fill="#E6E8EB" transform="translate(91,130)"/>
<path d="M0 0 C2.97 0 5.94 0 9 0 C9.33 11.55 9.66 23.1 10 35 C10.66 35.33 11.32 35.66 12 36 C12 36.66 12 37.32 12 38 C8.75030231 38.11638036 5.5011417 38.18730581 2.25 38.25 C0.86941406 38.30027344 0.86941406 38.30027344 -0.5390625 38.3515625 C-7.35829118 38.4503919 -7.35829118 38.4503919 -10.515625 36.234375 C-13.34970147 31.96834411 -14.24905997 29.46051859 -14.125 24.25 C-14.09792969 22.77273437 -14.09792969 22.77273437 -14.0703125 21.265625 C-14.03550781 20.14414063 -14.03550781 20.14414063 -14 19 C-13.34 19 -12.68 19 -12 19 C-11.896875 18.236875 -11.79375 17.47375 -11.6875 16.6875 C-10.64768683 12.6227758 -10.64768683 12.6227758 -8 11 C-0.90140845 10.32394366 -0.90140845 10.32394366 4 14 C3.67 10.37 3.34 6.74 3 3 C2.01 2.67 1.02 2.34 0 2 C0 1.34 0 0.68 0 0 Z " fill="#F7F7FE" transform="translate(284,94)"/>
<path d="M0 0 C2.97 0 5.94 0 9 0 C12.47637715 3.53971196 13.10685066 8.81792407 14.125 13.5625 C14.46090361 15.06380967 14.79684004 16.56511199 15.1328125 18.06640625 C15.27605957 18.72584229 15.41930664 19.38527832 15.56689453 20.06469727 C16.01168688 22.05222203 16.49835989 24.02613134 17 26 C19.3391709 25.11691031 19.3391709 25.11691031 20.0703125 22.05859375 C20.41835937 20.86363281 20.76640625 19.66867188 21.125 18.4375 C21.47820312 17.23996094 21.83140625 16.04242188 22.1953125 14.80859375 C22.46085937 13.88175781 22.72640625 12.95492187 23 12 C23.66 12 24.32 12 25 12 C25.12117188 11.21753906 25.24234375 10.43507813 25.3671875 9.62890625 C25.53476563 8.61699219 25.70234375 7.60507813 25.875 6.5625 C26.03742188 5.55316406 26.19984375 4.54382813 26.3671875 3.50390625 C26.57601562 2.67761719 26.78484375 1.85132812 27 1 C29 0 29 0 36 0 C36 10.56 36 21.12 36 32 C36.99 32.33 37.98 32.66 39 33 C39 33.66 39 34.32 39 35 C35.04 35 31.08 35 27 35 C27 34.34 27 33.68 27 33 C27.99 32.505 27.99 32.505 29 32 C29 23.75 29 15.5 29 7 C28.05125 9.825625 27.1025 12.65125 26.125 15.5625 C25.82996582 16.43849854 25.53493164 17.31449707 25.23095703 18.21704102 C23.70305993 22.78474151 22.29837487 27.3621114 21 32 C20.67 32.99 20.34 33.98 20 35 C18.35 35 16.7 35 15 35 C15 33.02 15 31.04 15 29 C14.34 29 13.68 29 13 29 C13 27.68 13 26.36 13 25 C12.34 25 11.68 25 11 25 C10.89042969 24.38253906 10.78085938 23.76507813 10.66796875 23.12890625 C9.58181902 17.32727718 8.46079566 11.40144648 6 6 C5.34 5.67 4.68 5.34 4 5 C4.10988136 9.25053264 4.24051204 13.50018035 4.375 17.75 C4.4059375 18.9565625 4.436875 20.163125 4.46875 21.40625 C4.50742188 22.56640625 4.54609375 23.7265625 4.5859375 24.921875 C4.6173584 25.99018555 4.6487793 27.05849609 4.68115234 28.15917969 C4.87006341 31.31456161 4.87006341 31.31456161 7 35 C3.7 35 0.4 35 -3 35 C-3 34.34 -3 33.68 -3 33 C-1.68 33 -0.36 33 1 33 C0.67 22.11 0.34 11.22 0 0 Z " fill="#A4ABF7" transform="translate(199,97)"/>
<path d="M0 0 C3.04317386 -0.13558695 6.08025562 -0.23437239 9.125 -0.3125 C10.40890625 -0.3753418 10.40890625 -0.3753418 11.71875 -0.43945312 C15.97550247 -0.52131375 19.09686715 -0.43768903 22.5859375 2.171875 C25.2879066 5.33728864 25.72696155 6.48286606 25.5 10.5625 C25.4690625 11.49191406 25.438125 12.42132813 25.40625 13.37890625 C24.9978915 16.0136039 24.41797565 17.75445137 23 20 C18.57843223 22.67973804 14.0036565 22.14936288 9 22 C9 25.96 9 29.92 9 34 C10.32 34 11.64 34 13 34 C13 34.66 13 35.32 13 36 C8.38 36 3.76 36 -1 36 C-1 35.34 -1 34.68 -1 34 C0.32 34 1.64 34 3 34 C3 23.44 3 12.88 3 2 C2.01 2 1.02 2 0 2 C0 1.34 0 0.68 0 0 Z " fill="#969CF3" transform="translate(301,96)"/>
<path d="M0 0 C3.1378257 1.74118563 4.61970014 3.70768944 6 7 C7.01236481 12.88945076 7.15254713 18.9601539 4.1875 24.3125 C2.31906662 26.4593246 1.19502974 26.95584784 -1.60546875 27.58984375 C-6.41414806 27.85591103 -9.12545989 27.64251927 -13.0625 24.75 C-17.16859315 18.92199682 -18.03802586 14.11201879 -17 7 C-13.30690215 -0.08415795 -7.42393947 -1.30543278 0 0 Z " fill="#A2A8F6" transform="translate(348,105)"/>
<path d="M0 0 C4.30929813 2.22283667 7.27379806 4.9983931 10 9 C11.2080562 14.75254398 10.95566079 20.22477733 10.625 26.0625 C10.5747549 27.6111836 10.52914227 29.16002478 10.48828125 30.70898438 C10.37890054 34.47659655 10.2069062 38.23653537 10 42 C7.08482708 40.92598892 5.22189824 40.22189824 3 38 C2.82511746 35.56255103 2.76822595 33.2406392 2.8046875 30.8046875 C2.8075174 30.09724396 2.81034729 29.38980042 2.81326294 28.66091919 C2.82446863 26.3987749 2.84957321 24.13702485 2.875 21.875 C2.88502933 20.34245363 2.89415526 18.80990106 2.90234375 17.27734375 C2.92440914 13.51807699 2.95894104 9.75910536 3 6 C-0.12197478 7.3089572 -0.12197478 7.3089572 -2 10 C-2.46588282 15.88165736 -2.46588282 15.88165736 0 21 C0.1953125 23.26171875 0.1953125 23.26171875 0.125 25.6875 C0.10695313 26.49574219 0.08890625 27.30398437 0.0703125 28.13671875 C0.03550781 29.05904297 0.03550781 29.05904297 0 30 C-3.47339053 29.43491477 -4.95006976 28.37356664 -7.1875 25.6875 C-7.69667969 25.09324219 -8.20585938 24.49898437 -8.73046875 23.88671875 C-11.41725323 19.89374367 -11.31351649 15.70274733 -11 11 C-9.29007084 4.5848175 -7.54226604 -0.81353412 0 0 Z " fill="#8D97F4" transform="translate(92,134)"/>
<path d="M0 0 C3.4375 1.4375 3.4375 1.4375 6 4 C6.84062911 7.00524906 7.14542483 9.88285042 7 13 C6 14 6 14 2.62109375 14.09765625 C1.22652923 14.09098369 -0.16801743 14.07902532 -1.5625 14.0625 C-2.27341797 14.05798828 -2.98433594 14.05347656 -3.71679688 14.04882812 C-5.47790013 14.03700864 -7.23896036 14.01907263 -9 14 C-8.1395861 18.33229715 -8.1395861 18.33229715 -6 22 C-0.3952291 22.21326403 -0.3952291 22.21326403 5 21 C4.75 22.875 4.75 22.875 4 25 C0.82259139 27.35363601 -2.14763024 27.46228437 -6 27 C-9.6578218 24.96006092 -11.66946174 23.49580738 -14 20 C-14.3359375 16.8203125 -14.3359375 16.8203125 -14.375 13.125 C-14.40335938 11.91070312 -14.43171875 10.69640625 -14.4609375 9.4453125 C-13.92423923 5.43372036 -12.81933478 3.84029638 -10 1 C-6.77285084 -0.61357458 -3.49828558 -0.44134215 0 0 Z " fill="#9196F7" transform="translate(258,105)"/>
<path d="M0 0 C3.87713858 -0.07456036 7.25928354 -0.00711597 11 1 C11.33 0.67 11.66 0.34 12 0 C14.92763039 -0.28796365 17.1515815 -0.49320865 20 0 C25.29964044 4.75608757 25.12103903 10.56445377 25.5625 17.3125 C25.68818359 19.19388672 25.68818359 19.19388672 25.81640625 21.11328125 C25.87699219 22.06589844 25.93757813 23.01851562 26 24 C26.99 24.33 27.98 24.66 29 25 C29 25.66 29 26.32 29 27 C26.03 27 23.06 27 20 27 C19.93941406 25.59105469 19.87882812 24.18210938 19.81640625 22.73046875 C19.73199509 20.88280224 19.64734737 19.03514653 19.5625 17.1875 C19.52318359 16.25873047 19.48386719 15.32996094 19.44335938 14.37304688 C19.40146484 13.48037109 19.35957031 12.58769531 19.31640625 11.66796875 C19.27974854 10.84578857 19.24309082 10.0236084 19.20532227 9.17651367 C19.06572228 6.82094822 19.06572228 6.82094822 18 4 C15.36 4.66 12.72 5.32 10 6 C9.67 12.27 9.34 18.54 9 25 C10.32 25 11.64 25 13 25 C13 25.66 13 26.32 13 27 C8.71 27 4.42 27 0 27 C0 26.34 0 25.68 0 25 C1.32 25 2.64 25 4 25 C3.67 17.74 3.34 10.48 3 3 C2.01 2.67 1.02 2.34 0 2 C0 1.34 0 0.68 0 0 Z " fill="#AAB0F7" transform="translate(375,105)"/>
<path d="M0 0 C4.89670551 1.47263884 8.60305921 3.61196361 11.63671875 7.79296875 C12.41489127 12.90892729 12.17143939 17.66361149 11.63671875 22.79296875 C15.28261417 20.35296763 15.28261417 20.35296763 17.34375 16.65234375 C17.37855469 15.95625 17.41335937 15.26015625 17.44921875 14.54296875 C17.54203125 12.68671875 17.54203125 12.68671875 17.63671875 10.79296875 C17.96671875 10.79296875 18.29671875 10.79296875 18.63671875 10.79296875 C18.63671875 13.43296875 18.63671875 16.07296875 18.63671875 18.79296875 C19.62671875 18.79296875 20.61671875 18.79296875 21.63671875 18.79296875 C21.63671875 19.45296875 21.63671875 20.11296875 21.63671875 20.79296875 C22.29671875 20.79296875 22.95671875 20.79296875 23.63671875 20.79296875 C21.49554228 26.8870864 21.49554228 26.8870864 18.63671875 28.79296875 C14.25471688 28.67765291 11.792902 26.68613673 8.63671875 23.79296875 C8.30671875 23.13296875 7.97671875 22.47296875 7.63671875 21.79296875 C6.64671875 21.46296875 5.65671875 21.13296875 4.63671875 20.79296875 C4.63671875 15.84296875 4.63671875 10.89296875 4.63671875 5.79296875 C-0.46550073 8.07953932 -0.46550073 8.07953932 -1.0703125 11.2734375 C-1.10511719 12.16675781 -1.13992187 13.06007813 -1.17578125 13.98046875 C-1.22347656 14.88152344 -1.27117187 15.78257813 -1.3203125 16.7109375 C-1.34158203 17.74154297 -1.34158203 17.74154297 -1.36328125 18.79296875 C-1.69328125 18.79296875 -2.02328125 18.79296875 -2.36328125 18.79296875 C-2.36328125 16.48296875 -2.36328125 14.17296875 -2.36328125 11.79296875 C-3.02328125 11.79296875 -3.68328125 11.79296875 -4.36328125 11.79296875 C-4.69328125 9.81296875 -5.02328125 7.83296875 -5.36328125 5.79296875 C-7.35944679 7.78913429 -6.77311552 11.60998838 -6.92578125 14.35546875 C-6.96896484 15.06638672 -7.01214844 15.77730469 -7.05664062 16.50976562 C-7.16299902 18.27058787 -7.26366971 20.03175195 -7.36328125 21.79296875 C-10.1861197 19.38086076 -10.34607322 18.96791709 -10.73828125 14.98046875 C-10.50803089 9.51452532 -8.39476131 6.06874672 -4.98828125 1.85546875 C-2.36328125 -0.20703125 -2.36328125 -0.20703125 0 0 Z " fill="#8AC85A" transform="translate(90.36328125,99.20703125)"/>
<path d="M0 0 C3.40178421 5.83547173 2.63670295 13.61685851 1 20 C-1.84083641 21.42041821 -3.85477278 21.31452272 -7 21 C-10.12388324 18.72193352 -10.91866994 17.51249897 -11.53125 13.65234375 C-11.5209375 12.42644531 -11.510625 11.20054688 -11.5 9.9375 C-11.5103125 8.70902344 -11.520625 7.48054688 -11.53125 6.21484375 C-11 3 -11 3 -9.203125 1.078125 C-6.09383799 -0.44344098 -3.40660398 -0.19653484 0 0 Z " fill="#F8F9FE" transform="translate(347,108)"/>
<path d="M0 0 C2.97 0 5.94 0 9 0 C9.33 11.55 9.66 23.1 10 35 C10.66 35.33 11.32 35.66 12 36 C12 36.66 12 37.32 12 38 C9.69 38 7.38 38 5 38 C3.1269289 33.26223192 2.81125806 29.38742579 2.9375 24.3125 C3.11559164 19.05944912 3.11559164 19.05944912 2 14 C2.66 14 3.32 14 4 14 C3.67 10.37 3.34 6.74 3 3 C2.01 2.67 1.02 2.34 0 2 C0 1.34 0 0.68 0 0 Z " fill="#9CA3F4" transform="translate(284,94)"/>
<path d="M0 0 C2.31 0 4.62 0 7 0 C6.67 6.27 6.34 12.54 6 19 C5.01 19 4.02 19 3 19 C3 19.66 3 20.32 3 21 C3.99 21 4.98 21 6 21 C6.33 24.63 6.66 28.26 7 32 C8.32 32.33 9.64 32.66 11 33 C11 33.66 11 34.32 11 35 C6.38 35 1.76 35 -3 35 C-3 34.34 -3 33.68 -3 33 C-1.68 33 -0.36 33 1 33 C0.67 22.11 0.34 11.22 0 0 Z " fill="#A0A7F3" transform="translate(303,97)"/>
<path d="M0 0 C2.475 0.99 2.475 0.99 5 2 C5 12.89 5 23.78 5 35 C0 33 0 33 -1 32 C-1.09951735 30.25487869 -1.13080303 28.5057679 -1.1328125 26.7578125 C-1.13410156 25.69175781 -1.13539062 24.62570313 -1.13671875 23.52734375 C-1.13285156 22.40457031 -1.12898438 21.28179687 -1.125 20.125 C-1.12886719 19.00996094 -1.13273437 17.89492187 -1.13671875 16.74609375 C-1.13542969 15.67746094 -1.13414063 14.60882813 -1.1328125 13.5078125 C-1.13112061 12.03272217 -1.13112061 12.03272217 -1.12939453 10.52783203 C-1 8 -1 8 0 5 C0.03874921 3.33378384 0.0450286 1.66605828 0 0 Z " fill="#868FF6" transform="translate(97,141)"/>
<path d="M0 0 C2.31 0 4.62 0 7 0 C7 10.56 7 21.12 7 32 C7.99 32.33 8.98 32.66 10 33 C10 33.66 10 34.32 10 35 C6.04 35 2.08 35 -2 35 C-2 34.34 -2 33.68 -2 33 C-1.01 32.34 -0.02 31.68 1 31 C1.510605 28.28995497 1.510605 28.28995497 1.51171875 25.1171875 C1.56489258 23.36728516 1.56489258 23.36728516 1.61914062 21.58203125 C1.64169922 20.35871094 1.66425781 19.13539062 1.6875 17.875 C1.72166016 16.64394531 1.75582031 15.41289063 1.79101562 14.14453125 C1.87371564 11.0964449 1.94279427 8.04865429 2 5 C1.01 5 0.02 5 -1 5 C-0.67 3.35 -0.34 1.7 0 0 Z " fill="#949DF8" transform="translate(228,97)"/>
<path d="M0 0 C0.33 1.65 0.66 3.3 1 5 C2.65 5.33 4.3 5.66 6 6 C6 6.33 6 6.66 6 7 C4.35 7.33 2.7 7.66 1 8 C1 14.6 1 21.2 1 28 C3.475 28.99 3.475 28.99 6 30 C6 30.33 6 30.66 6 31 C-1.5150564 31.36959294 -1.5150564 31.36959294 -3.609375 29.7734375 C-5.40574805 27.48255726 -5.34811061 26.21778863 -5.29296875 23.33203125 C-5.28330078 22.43935547 -5.27363281 21.54667969 -5.26367188 20.62695312 C-5.23853516 19.69818359 -5.21339844 18.76941406 -5.1875 17.8125 C-5.16719727 16.40194336 -5.16719727 16.40194336 -5.14648438 14.96289062 C-5.11113096 12.64134962 -5.06178674 10.32096347 -5 8 C-5.99 8 -6.98 8 -8 8 C-6.78549285 4.35647855 -4.23741046 0 0 0 Z " fill="#9BA0F4" transform="translate(415,100)"/>
<path d="M0 0 C0.66 0.99 1.32 1.98 2 3 C0.72125 3.0825 -0.5575 3.165 -1.875 3.25 C-4.04634555 3.30367785 -4.04634555 3.30367785 -6 4 C-8.79199644 7.99483767 -8.40781778 12.32578078 -8 17 C-7.48638212 19.42640172 -6.80150138 21.64558969 -6 24 C-3.69 24 -1.38 24 1 24 C0.67 24.99 0.34 25.98 0 27 C-7.33624454 27.48908297 -7.33624454 27.48908297 -10.375 25.25 C-13.36776269 21.10617474 -14.24795133 18.41395606 -14.125 13.25 C-14.09792969 11.77273437 -14.09792969 11.77273437 -14.0703125 10.265625 C-14.04710937 9.51796875 -14.02390625 8.7703125 -14 8 C-13.34 8 -12.68 8 -12 8 C-11.896875 7.236875 -11.79375 6.47375 -11.6875 5.6875 C-10.00033863 -0.90776716 -6.06443572 -0.57756531 0 0 Z " fill="#989EF4" transform="translate(284,105)"/>
<path d="M0 0 C8 0 8 0 10 1 C10.05402274 3.10388569 10.09280256 5.20816714 10.125 7.3125 C10.14820313 8.48425781 10.17140625 9.65601562 10.1953125 10.86328125 C10 14 10 14 8 17 C5.36 17 2.72 17 0 17 C0 11.39 0 5.78 0 0 Z " fill="#F8F9FE" transform="translate(310,99)"/>
<path d="M0 0 C2.64 0 5.28 0 8 0 C9.42258812 3.82320557 10.24042276 6.91281305 10 11 C9.01 11 8.02 11 7 11 C6.87625 10.195625 6.7525 9.39125 6.625 8.5625 C6.41875 7.716875 6.2125 6.87125 6 6 C5.34 5.67 4.68 5.34 4 5 C4.10988136 9.25053264 4.24051204 13.50018035 4.375 17.75 C4.4059375 18.9565625 4.436875 20.163125 4.46875 21.40625 C4.50742188 22.56640625 4.54609375 23.7265625 4.5859375 24.921875 C4.6173584 25.99018555 4.6487793 27.05849609 4.68115234 28.15917969 C4.87006341 31.31456161 4.87006341 31.31456161 7 35 C3.7 35 0.4 35 -3 35 C-3 34.34 -3 33.68 -3 33 C-1.68 33 -0.36 33 1 33 C0.67 22.11 0.34 11.22 0 0 Z " fill="#9DA4F3" transform="translate(199,97)"/>
<path d="M0 0 C2.97 0 5.94 0 9 0 C9.33 7.92 9.66 15.84 10 24 C10.99 24.33 11.98 24.66 13 25 C13 25.66 13 26.32 13 27 C9.04 27 5.08 27 1 27 C1 26.34 1 25.68 1 25 C1.66 24.67 2.32 24.34 3 24 C3.33 17.07 3.66 10.14 4 3 C2.68 2.67 1.36 2.34 0 2 C0 1.34 0 0.68 0 0 Z " fill="#A2A8F6" transform="translate(359,105)"/>
<path d="M0 0 C5.1883957 3.28937505 9.75789539 6.50835982 14 11 C14.99 11.66 15.98 12.32 17 13 C17.29296875 15.6015625 17.29296875 15.6015625 17.1875 18.625 C17.16042969 19.62789062 17.13335937 20.63078125 17.10546875 21.6640625 C17.07066406 22.43492187 17.03585938 23.20578125 17 24 C16.34 24.33 15.68 24.66 15 25 C14.53248212 27.35599235 14.53248212 27.35599235 14.375 30.0625 C14.30023438 30.98160156 14.22546875 31.90070313 14.1484375 32.84765625 C14.09945312 33.55792969 14.05046875 34.26820313 14 35 C14.66 35.33 15.32 35.66 16 36 C15.01 36 14.02 36 13 36 C12.505 38.475 12.505 38.475 12 41 C11.67 41 11.34 41 11 41 C11.02525757 39.79053711 11.02525757 39.79053711 11.05102539 38.55664062 C11.10158118 34.87003831 11.08261683 31.18686673 11.0625 27.5 C11.09021484 26.2315625 11.11792969 24.963125 11.14648438 23.65625 C11.12316799 16.56797803 11.12316799 16.56797803 8.06591797 10.37890625 C4.64839114 7.28008709 1.17460829 4.95328447 -3 3 C-2.01 2.67 -1.02 2.34 0 2 C0 1.34 0 0.68 0 0 Z " fill="#F2F7F3" transform="translate(91,130)"/>
<path d="M0 0 C0.33 0 0.66 0 1 0 C0.98259766 1.30819702 0.98259766 1.30819702 0.96484375 2.64282227 C0.94054255 5.90764492 0.95229681 9.16834785 0.98779297 12.43286133 C0.9958591 13.84007836 0.98992834 15.24745297 0.96923828 16.65454102 C0.69438655 24.96508847 0.69438655 24.96508847 3.671875 32.49169922 C7.26123034 35.79178085 10.16226323 37.26894778 15 38 C15 38.33 15 38.66 15 39 C12.20676533 39.9931501 10.89425331 40.37233104 8 40 C2.6695664 37.01228826 -2.80360402 33.3238333 -6 28 C-6.75085268 23.79361025 -6.40355927 20.6053389 -4 17 C-3.61500109 15.34450469 -3.27206865 13.6777567 -3 12 C-2.34 12 -1.68 12 -1 12 C-0.67 8.04 -0.34 4.08 0 0 Z " fill="#E4E9F3" transform="translate(94,54)"/>
<path d="M0 0 C0 4.95 0 9.9 0 15 C1.32 15.33 2.64 15.66 4 16 C4.804375 16.825 5.60875 17.65 6.4375 18.5 C9.13002594 21.12685458 10.28832761 21.90232441 14 22 C14.99 21.34 15.98 20.68 17 20 C16.25 21.9375 16.25 21.9375 15 24 C12.875 24.75 12.875 24.75 11 25 C12.32 26.65 13.64 28.3 15 30 C9.25430458 27.46434099 4.74682573 23.02076003 0 19 C-0.67675781 18.48050781 -1.35351562 17.96101563 -2.05078125 17.42578125 C-4.49058794 15.3935795 -5.87111468 13.64544145 -6.49609375 10.515625 C-6.62546101 7.80283282 -6.69702713 5.62969328 -6 3 C-2.81127983 0 -2.81127983 0 0 0 Z " fill="#E4F2D9" transform="translate(95,105)"/>
<path d="M0 0 C0.71161789 0.00399811 1.42323578 0.00799622 2.15641785 0.01211548 C10.01907552 0.06930628 17.87880255 0.23579908 25.73828125 0.4609375 C26.83991608 0.49161819 26.83991608 0.49161819 27.96380615 0.5229187 C39.352203 0.85102853 50.630267 1.55105891 61.92578125 3.0859375 C62.42078125 4.5709375 62.42078125 4.5709375 62.92578125 6.0859375 C59.025499 8.68612566 55.45143556 8.23679264 50.92578125 8.0859375 C50.92578125 7.7559375 50.92578125 7.4259375 50.92578125 7.0859375 C53.56578125 6.7559375 56.20578125 6.4259375 58.92578125 6.0859375 C58.92578125 5.4259375 58.92578125 4.7659375 58.92578125 4.0859375 C45.41235381 3.26970268 31.94824949 2.92650136 18.41064453 2.95556641 C15.37267294 2.96103307 12.33484276 2.95552461 9.296875 2.94921875 C7.35026009 2.94987793 5.40364527 2.95115575 3.45703125 2.953125 C2.10563049 2.95008865 2.10563049 2.95008865 0.72692871 2.94699097 C-0.52718811 2.95171921 -0.52718811 2.95171921 -1.80664062 2.95654297 C-2.90196106 2.95773636 -2.90196106 2.95773636 -4.01940918 2.95895386 C-6.42721775 3.04510422 -6.42721775 3.04510422 -10.07421875 4.0859375 C-10.07421875 9.0359375 -10.07421875 13.9859375 -10.07421875 19.0859375 C-10.73421875 19.0859375 -11.39421875 19.0859375 -12.07421875 19.0859375 C-12.15572619 17.02410117 -12.21363815 14.96132401 -12.26171875 12.8984375 C-12.29652344 11.74988281 -12.33132812 10.60132813 -12.3671875 9.41796875 C-12.04745408 5.781534 -11.25580148 3.9753461 -9.07421875 1.0859375 C-6.0746142 -0.41386478 -3.34167739 -0.02096126 0 0 Z " fill="#A6ACF7" transform="translate(119.07421875,44.9140625)"/>
<path d="M0 0 C0 0.33 0 0.66 0 1 C-4.7462134 1.28982156 -9.49270442 1.57440017 -14.23950195 1.85449219 C-15.84830844 1.95011886 -17.45703605 2.04708382 -19.06567383 2.14550781 C-28.72636452 2.73556558 -38.31730285 3.15473404 -48 3 C-48 3.99 -48 4.98 -48 6 C-47.01 6 -46.02 6 -45 6 C-45.33 7.65 -45.66 9.3 -46 11 C-41.38 11.66 -36.76 12.32 -32 13 C-32 13.33 -32 13.66 -32 14 C-37.15171623 14.09038099 -41.91913204 13.84681133 -47 13 C-47.21398438 12.21238281 -47.42796875 11.42476562 -47.6484375 10.61328125 C-48.76877637 7.7767034 -48.76877637 7.7767034 -51.6015625 6.85546875 C-52.59929688 6.63503906 -53.59703125 6.41460937 -54.625 6.1875 C-56.12933594 5.83751953 -56.12933594 5.83751953 -57.6640625 5.48046875 C-58.43492188 5.32191406 -59.20578125 5.16335937 -60 5 C-59.67 4.01 -59.34 3.02 -59 2 C-51.6217618 0.8983559 -44.26292764 0.66584224 -36.8125 0.4375 C-35.49362793 0.3950415 -34.17475586 0.35258301 -32.81591797 0.30883789 C-21.87512366 -0.02889318 -10.94479448 -0.10872312 0 0 Z " fill="#A8D583" transform="translate(76,46)"/>
<path d="M0 0 C3.22911295 1.45310083 5.15231557 3.50900878 7.5 6.125 C6.84 6.125 6.18 6.125 5.5 6.125 C5.5 11.075 5.5 16.025 5.5 21.125 C5.17 21.125 4.84 21.125 4.5 21.125 C4.5 16.175 4.5 11.225 4.5 6.125 C-0.60221948 8.41157057 -0.60221948 8.41157057 -1.20703125 11.60546875 C-1.24183594 12.49878906 -1.27664062 13.39210938 -1.3125 14.3125 C-1.36019531 15.21355469 -1.40789062 16.11460938 -1.45703125 17.04296875 C-1.47830078 18.07357422 -1.47830078 18.07357422 -1.5 19.125 C-1.83 19.125 -2.16 19.125 -2.5 19.125 C-2.5 16.815 -2.5 14.505 -2.5 12.125 C-3.16 12.125 -3.82 12.125 -4.5 12.125 C-4.83 10.145 -5.16 8.165 -5.5 6.125 C-7.49616554 8.12116554 -6.90983427 11.94201963 -7.0625 14.6875 C-7.10568359 15.39841797 -7.14886719 16.10933594 -7.19335938 16.84179688 C-7.29971777 18.60261912 -7.40038846 20.3637832 -7.5 22.125 C-10.32283845 19.71289201 -10.48279197 19.29994834 -10.875 15.3125 C-10.64474964 9.84655657 -8.53148006 6.40077797 -5.125 2.1875 C-2.5 0.125 -2.5 0.125 0 0 Z " fill="#8AC656" transform="translate(90.5,98.875)"/>
<path d="M0 0 C0.66 0 1.32 0 2 0 C1.96519531 1.03060547 1.96519531 1.03060547 1.9296875 2.08203125 C1.91164063 2.98308594 1.89359375 3.88414062 1.875 4.8125 C1.84019531 6.15248047 1.84019531 6.15248047 1.8046875 7.51953125 C1.81714173 10.25402714 1.81714173 10.25402714 4 13 C4.1953125 15.26171875 4.1953125 15.26171875 4.125 17.6875 C4.10695313 18.49574219 4.08890625 19.30398437 4.0703125 20.13671875 C4.03550781 21.05904297 4.03550781 21.05904297 4 22 C-0.22486726 21.24523069 -2.17197468 19.49420207 -4.87109375 16.25390625 C-7.00828196 11.98692494 -5.90058246 7.52747362 -5 3 C-3.35 2.67 -1.7 2.34 0 2 C0 1.34 0 0.68 0 0 Z " fill="#8E96F7" transform="translate(88,142)"/>
<path d="M0 0 C0.99 0 1.98 0 3 0 C3 12.21 3 24.42 3 37 C4.65 36.01 6.3 35.02 8 34 C8.64135543 31.30303029 8.64135543 31.30303029 8.375 28.375 C8.32472656 26.90160156 8.32472656 26.90160156 8.2734375 25.3984375 C8.25779092 23.0503043 8.25779092 23.0503043 7 22 C6.95919217 20.00041636 6.95745644 17.99954746 7 16 C9.88405993 18.88405993 9.67193589 22.11473612 10.0625 26 C10.43134893 31.15613724 10.43134893 31.15613724 12 36 C12.66 36 13.32 36 14 36 C13.6875 37.875 13.6875 37.875 13 40 C9.69985205 42.20009864 8.8281673 42.62319003 5 42 C2.7816564 40.49843252 0.97307047 38.83541439 -1 37 C-0.01 36.505 -0.01 36.505 1 36 C1 24.78 1 13.56 1 2 C0.01 2 -0.98 2 -2 2 C-1.34 1.34 -0.68 0.68 0 0 Z " fill="#8C95F6" transform="translate(99,50)"/>
<path d="M0 0 C0.66 0.28875 1.32 0.5775 2 0.875 C4.81808745 2.46017419 6.78645301 4.66680182 9 7 C9.33 7.33 9.66 7.66 10 8 C10.52245002 12.70205021 10.93534448 16.69051773 8.125 20.625 C6 22 6 22 4 22 C4.020625 20.98679687 4.04125 19.97359375 4.0625 18.9296875 C4.22413152 11.41402781 4.22413152 11.41402781 1.29296875 4.7734375 C-0.74464036 3.29910067 -2.76416082 2.1448824 -5 1 C-6.34910156 0.02137711 -7.68711821 -0.97329694 -9 -2 C-5.04510221 -3.61125466 -3.39274703 -2.29010425 0 0 Z " fill="#F5FAF0" transform="translate(98,100)"/>
<path d="M0 0 C0.33 1.32 0.66 2.64 1 4 C1.99 4 2.98 4 4 4 C4 12.58 4 21.16 4 30 C3.67 30 3.34 30 3 30 C2.67 22.08 2.34 14.16 2 6 C1.05125 8.825625 0.1025 11.65125 -0.875 14.5625 C-1.17003418 15.43849854 -1.46506836 16.31449707 -1.76904297 17.21704102 C-3.29694007 21.78474151 -4.70162513 26.3621114 -6 31 C-6.495 32.485 -6.495 32.485 -7 34 C-8.65 34 -10.3 34 -12 34 C-11.67 33.34 -11.34 32.68 -11 32 C-10.01 32.33 -9.02 32.66 -8 33 C-7.67 30.69 -7.34 28.38 -7 26 C-7.99 25.67 -8.98 25.34 -10 25 C-9.34 24.67 -8.68 24.34 -8 24 C-7.21376109 21.83927773 -6.51798774 19.64509125 -5.875 17.4375 C-5.52179688 16.23996094 -5.16859375 15.04242188 -4.8046875 13.80859375 C-4.40636719 12.41833984 -4.40636719 12.41833984 -4 11 C-3.34 11 -2.68 11 -2 11 C-1.34 7.37 -0.68 3.74 0 0 Z " fill="#B0B5F5" transform="translate(226,98)"/>
<path d="M0 0 C7.43986448 -0.48785997 7.43986448 -0.48785997 9.9375 1.6875 C12.56547747 7.40721567 12.31675745 13.73411414 12.62109375 19.91796875 C12.69156611 23.10192642 12.69156611 23.10192642 15 25 C12.69 25 10.38 25 8 25 C7.97494385 24.40985107 7.9498877 23.81970215 7.92407227 23.21166992 C7.80799948 20.53673186 7.68532428 17.8621362 7.5625 15.1875 C7.52318359 14.25873047 7.48386719 13.32996094 7.44335938 12.37304688 C7.40146484 11.48037109 7.35957031 10.58769531 7.31640625 9.66796875 C7.27974854 8.84578857 7.24309082 8.0236084 7.20532227 7.17651367 C7.06572228 4.82094822 7.06572228 4.82094822 6 2 C3.69 2 1.38 2 -1 2 C-0.67 1.34 -0.34 0.68 0 0 Z " fill="#8B93F6" transform="translate(388,106)"/>
<path d="M0 0 C1.65 0 3.3 0 5 0 C5.66 1.32 6.32 2.64 7 4 C10.3 4 13.6 4 17 4 C17 5.32 17 6.64 17 8 C20.96 8.33 24.92 8.66 29 9 C29 9.66 29 10.32 29 11 C24.05 11 19.1 11 14 11 C13.67 9.68 13.34 8.36 13 7 C11.50146484 6.92652344 11.50146484 6.92652344 9.97265625 6.8515625 C8.03712891 6.73941406 8.03712891 6.73941406 6.0625 6.625 C4.13083984 6.52058594 4.13083984 6.52058594 2.16015625 6.4140625 C0.59587891 6.20910156 0.59587891 6.20910156 -1 6 C-1.33 5.34 -1.66 4.68 -2 4 C-1.34 4 -0.68 4 0 4 C0 2.68 0 1.36 0 0 Z " fill="#80C24D" transform="translate(31,52)"/>
<path d="M0 0 C3.16785347 -0.21599001 5.34504581 -0.34915268 8.18359375 1.1640625 C10 3 10 3 10.42578125 5.62890625 C10.38839844 6.59699219 10.35101563 7.56507812 10.3125 8.5625 C10.28800781 9.53316406 10.26351562 10.50382812 10.23828125 11.50390625 C10 14 10 14 9 16 C8.01 16 7.02 16 6 16 C6 15.34 6 14.68 6 14 C5.01 14 4.02 14 3 14 C2.86722656 13.32453125 2.73445313 12.6490625 2.59765625 11.953125 C2.42105469 11.06109375 2.24445313 10.1690625 2.0625 9.25 C1.88847656 8.36828125 1.71445313 7.4865625 1.53515625 6.578125 C1.07631512 4.36764947 0.56663926 2.18487932 0 0 Z " fill="#83C44F" transform="translate(106,104)"/>
<path d="M0 0 C0.66 0.33 1.32 0.66 2 1 C2.44921875 3.03125 2.44921875 3.03125 2.6875 5.5 C2.77386719 6.3146875 2.86023438 7.129375 2.94921875 7.96875 C2.97435547 8.97421875 2.97435547 8.97421875 3 10 C2 11 2 11 -1.37890625 11.09765625 C-2.77347077 11.09098369 -4.16801743 11.07902532 -5.5625 11.0625 C-6.27341797 11.05798828 -6.98433594 11.05347656 -7.71679688 11.04882812 C-9.47790013 11.03700864 -11.23896036 11.01907263 -13 11 C-12.1395861 15.33229715 -12.1395861 15.33229715 -10 19 C-4.3952291 19.21326403 -4.3952291 19.21326403 1 18 C0.75 19.875 0.75 19.875 0 22 C-3.17740861 24.35363601 -6.14763024 24.46228437 -10 24 C-13.375 22 -13.375 22 -16 20 C-15.34 19.67 -14.68 19.34 -14 19 C-14 16.03 -14 13.06 -14 10 C-9.05 10 -4.1 10 1 10 C0.505 5.05 0.505 5.05 0 0 Z " fill="#A2A8F5" transform="translate(262,108)"/>
<path d="M0 0 C1.98 0 3.96 0 6 0 C6.05830787 3.39576062 6.09369946 6.7913915 6.125 10.1875 C6.14175781 11.14720703 6.15851563 12.10691406 6.17578125 13.09570312 C6.18222656 14.02705078 6.18867188 14.95839844 6.1953125 15.91796875 C6.20578613 16.77156982 6.21625977 17.6251709 6.22705078 18.50463867 C5.97204194 21.30726815 5.15541422 23.44729419 4 26 C3.67 26 3.34 26 3 26 C2.95101563 25.39671875 2.90203125 24.7934375 2.8515625 24.171875 C2.77679688 23.37265625 2.70203125 22.5734375 2.625 21.75 C2.55539062 20.96109375 2.48578125 20.1721875 2.4140625 19.359375 C1.98492887 16.914123 1.21399362 15.15163097 0 13 C0.66 13 1.32 13 2 13 C1.85915204 11.20793453 1.71216299 9.41635083 1.5625 7.625 C1.48128906 6.62726563 1.40007812 5.62953125 1.31640625 4.6015625 C1.15034374 2.02072387 1.15034374 2.02072387 0 0 Z " fill="#8992F6" transform="translate(286,95)"/>
<path d="M0 0 C1.32 0 2.64 0 4 0 C4.33 1.65 4.66 3.3 5 5 C6.65 5.33 8.3 5.66 10 6 C9.67 7.32 9.34 8.64 9 10 C7.68 10 6.36 10 5 10 C5.33 16.27 5.66 22.54 6 29 C7.32 29.33 8.64 29.66 10 30 C10 30.99 10 31.98 10 33 C7.36 33 4.72 33 2 33 C2.99 32.34 3.98 31.68 5 31 C4.34 30.34 3.68 29.68 3 29 C2.77294922 26.98461914 2.77294922 26.98461914 2.8046875 24.53515625 C2.81113281 23.65279297 2.81757813 22.77042969 2.82421875 21.86132812 C2.84097656 20.93771484 2.85773438 20.01410156 2.875 19.0625 C2.88402344 18.14275391 2.89304687 17.22300781 2.90234375 16.27539062 C2.91980808 14.56513357 2.94136799 12.85491016 2.96826172 11.14477539 C2.9936368 9.43000537 3 7.71495776 3 6 C3 4.33333333 3 2.66666667 3 1 C2.01 1.33 1.02 1.66 0 2 C0 1.34 0 0.68 0 0 Z " fill="#D0D2F7" transform="translate(412,99)"/>
<path d="M0 0 C0.33 0 0.66 0 1 0 C1 5.61 1 11.22 1 17 C3.64 17 6.28 17 9 17 C10.00259507 13.99221479 10.30314642 11.46179353 10.5625 8.3125 C10.64628906 7.31863281 10.73007812 6.32476562 10.81640625 5.30078125 C10.87699219 4.54152344 10.93757813 3.78226562 11 3 C11.33 3 11.66 3 12 3 C12 6.96 12 10.92 12 15 C12.99 15 13.98 15 15 15 C15.33 14.34 15.66 13.68 16 13 C15.8125 14.875 15.8125 14.875 15 17 C10.64232251 19.72354843 5.95822016 19.14800657 1 19 C1 22.63 1 26.26 1 30 C0.67 30 0.34 30 0 30 C0 26.37 0 22.74 0 19 C-0.99 19 -1.98 19 -3 19 C-3 18.34 -3 17.68 -3 17 C-2.01 17 -1.02 17 0 17 C0 11.39 0 5.78 0 0 Z " fill="#ACB3F9" transform="translate(309,99)"/>
<path d="M0 0 C2.31 0 4.62 0 7 0 C6.67 0.99 6.34 1.98 6 3 C5.81281684 4.39448871 5.66116287 5.79397078 5.53515625 7.1953125 C5.45716797 7.99324219 5.37917969 8.79117188 5.29882812 9.61328125 C5.1405811 11.29514634 4.9869744 12.97745416 4.83789062 14.66015625 C4.62646353 16.78130287 4.3205128 18.892576 4 21 C3.34 21.33 2.68 21.66 2 22 C2 16.39 2 10.78 2 5 C1.01 5 0.02 5 -1 5 C-0.67 3.35 -0.34 1.7 0 0 Z " fill="#868FF5" transform="translate(228,97)"/>
<path d="M0 0 C1.32 0.33 2.64 0.66 4 1 C5.50156874 4.00313748 5.09281204 6.79067522 5.0625 10.125 C5.05347656 11.40632813 5.04445313 12.68765625 5.03515625 14.0078125 C5.02355469 14.99523437 5.01195313 15.98265625 5 17 C2.525 16.01 2.525 16.01 0 15 C0 10.05 0 5.1 0 0 Z " fill="#81C34F" transform="translate(96,105)"/>
<path d="M0 0 C3.375 -0.1875 3.375 -0.1875 7 0 C9 3 9 3 9 8 C5.37 8 1.74 8 -2 8 C-1 3 -1 3 0 0 Z " fill="#F2F3FE" transform="translate(251,108)"/>
<path d="M0 0 C3 0 3 0 4.66796875 1.58984375 C6.4037308 4.73050412 6.36532536 6.99069324 6.3125 10.5625 C6.30863281 11.69816406 6.30476563 12.83382812 6.30078125 14.00390625 C6 17 6 17 4 20 C3.34 20 2.68 20 2 20 C1.93941406 18.80761719 1.87882812 17.61523438 1.81640625 16.38671875 C1.73198851 14.82030075 1.64734113 13.25389512 1.5625 11.6875 C1.52318359 10.90181641 1.48386719 10.11613281 1.44335938 9.30664062 C1.40146484 8.54931641 1.35957031 7.79199219 1.31640625 7.01171875 C1.26141968 5.96697388 1.26141968 5.96697388 1.20532227 4.90112305 C1.04418847 2.7783428 1.04418847 2.7783428 0 0 Z " fill="#8D96F4" transform="translate(348,108)"/>
<path d="M0 0 C0.66 0.33 1.32 0.66 2 1 C2.22155127 3.93705131 2.42774197 6.87380363 2.625 9.8125 C2.68945312 10.64587891 2.75390625 11.47925781 2.8203125 12.33789062 C2.871875 13.14033203 2.9234375 13.94277344 2.9765625 14.76953125 C3.02893066 15.50792236 3.08129883 16.24631348 3.13525391 17.00708008 C3 19 3 19 1 22 C-1.49609375 22.3984375 -1.49609375 22.3984375 -4.4375 22.375 C-5.88962891 22.38660156 -5.88962891 22.38660156 -7.37109375 22.3984375 C-10.32060756 21.95140866 -11.1969369 21.3103656 -13 19 C-8.39452591 17.84863148 -5.06005857 18 0 18 C0 12.06 0 6.12 0 0 Z " fill="#B6B8F9" transform="translate(348,110)"/>
<path d="M0 0 C13.82862634 -0.25546702 27.2795411 0.22552956 41 2 C41.495 3.485 41.495 3.485 42 5 C38.09971775 7.60018816 34.52565431 7.15085514 30 7 C30 6.67 30 6.34 30 6 C32.64 5.67 35.28 5.34 38 5 C38 4.34 38 3.68 38 3 C36.14761719 2.90912109 36.14761719 2.90912109 34.2578125 2.81640625 C22.83604981 2.25257867 11.41728566 1.64808264 0 1 C0 0.67 0 0.34 0 0 Z " fill="#D7DAFC" transform="translate(140,46)"/>
<path d="M0 0 C2.64 1.98 5.28 3.96 8 6 C7.34 6.66 6.68 7.32 6 8 C4.5623891 13.8075672 4.66109726 19.92218102 4.4375 25.875 C4.39431641 26.94492188 4.35113281 28.01484375 4.30664062 29.1171875 C4.20107183 31.74467754 4.09896209 34.37225422 4 37 C3.67 37 3.34 37 3 37 C3 26.44 3 15.88 3 5 C1.68 5.33 0.36 5.66 -1 6 C-0.67 4.02 -0.34 2.04 0 0 Z " fill="#9DA2EE" transform="translate(92,135)"/>
<path d="M0 0 C-0.33 5.94 -0.66 11.88 -1 18 C-2.32 17.34 -3.64 16.68 -5 16 C-5.08075665 13.70890403 -5.13907731 11.41700733 -5.1875 9.125 C-5.22230469 7.84882812 -5.25710937 6.57265625 -5.29296875 5.2578125 C-5.19628906 4.18273437 -5.09960938 3.10765625 -5 2 C-2 0 -2 0 0 0 Z " fill="#8793F7" transform="translate(249,109)"/>
<path d="M0 0 C2.31 0 4.62 0 7 0 C6.67 6.27 6.34 12.54 6 19 C5.01 19 4.02 19 3 19 C3 13.72 3 8.44 3 3 C2.34 3 1.68 3 1 3 C0.67 2.01 0.34 1.02 0 0 Z " fill="#858FF3" transform="translate(303,97)"/>
<path d="M0 0 C0 4.62 0 9.24 0 14 C-4 13 -4 13 -5 12 C-5.203125 9.78515625 -5.203125 9.78515625 -5.25 7.0625 C-5.27578125 6.16660156 -5.3015625 5.27070312 -5.328125 4.34765625 C-5.21984375 3.57292969 -5.1115625 2.79820313 -5 2 C-2 0 -2 0 0 0 Z " fill="#F7FBF3" transform="translate(94,106)"/>
<path d="M0 0 C0.99 0 1.98 0 3 0 C4.25664978 2.90600261 5 4.79604584 5 8 C6.32 7.67 7.64 7.34 9 7 C8.47731534 9.76276177 7.89130413 12.3260876 7 15 C5.68 14.67 4.36 14.34 3 14 C0.88838269 4.58997722 0.88838269 4.58997722 0 0 Z " fill="#8B92F4" transform="translate(211,116)"/>
<path d="M0 0 C2.31 0 4.62 0 7 0 C7 7.59 7 15.18 7 23 C6.34 23 5.68 23 5 23 C5 16.4 5 9.8 5 3 C3.35 2.67 1.7 2.34 0 2 C0 1.34 0 0.68 0 0 Z " fill="#9097F8" transform="translate(375,105)"/>
<path d="M0 0 C2.64 0 5.28 0 8 0 C9.42258812 3.82320557 10.24042276 6.91281305 10 11 C9.01 11 8.02 11 7 11 C6.71125 10.030625 6.4225 9.06125 6.125 8.0625 C5.35785318 4.89335797 5.35785318 4.89335797 3 4 C3 6.31 3 8.62 3 11 C2.67 11 2.34 11 2 11 C1.34 7.37 0.68 3.74 0 0 Z " fill="#8991F8" transform="translate(199,97)"/>
<path d="M0 0 C0.66 0 1.32 0 2 0 C2.01981934 0.65073486 2.03963867 1.30146973 2.06005859 1.97192383 C2.15529299 4.91919151 2.26497818 7.86574885 2.375 10.8125 C2.4059375 11.83666016 2.436875 12.86082031 2.46875 13.91601562 C2.50742187 14.89892578 2.54609375 15.88183594 2.5859375 16.89453125 C2.6173584 17.80050049 2.6487793 18.70646973 2.68115234 19.63989258 C2.86027919 22.26525392 2.86027919 22.26525392 5 25 C3.35 24.67 1.7 24.34 0 24 C0 16.08 0 8.16 0 0 Z " fill="#848EF4" transform="translate(365,106)"/>
<path d="M0 0 C3.63 0 7.26 0 11 0 C10 4 10 4 9 5 C8.90014358 6.97583828 8.86919206 8.95523478 8.8671875 10.93359375 C8.86589844 12.13951172 8.86460937 13.34542969 8.86328125 14.58789062 C8.86714844 15.85826172 8.87101563 17.12863281 8.875 18.4375 C8.87113281 19.70400391 8.86726562 20.97050781 8.86328125 22.27539062 C8.86457031 23.48259766 8.86585938 24.68980469 8.8671875 25.93359375 C8.86831543 27.04790771 8.86944336 28.16222168 8.87060547 29.31030273 C8.81719784 31.97082739 8.81719784 31.97082739 10 34 C9.01 33.67 8.02 33.34 7 33 C6.97530679 28.7641643 6.95714329 24.52836658 6.94506836 20.29248047 C6.94003526 18.8510668 6.93320827 17.40965824 6.92456055 15.96826172 C6.91245017 13.89809915 6.90676153 11.82800399 6.90234375 9.7578125 C6.89710693 8.5114502 6.89187012 7.26508789 6.88647461 5.98095703 C7 3 7 3 8 1 C5.36 1.33 2.72 1.66 0 2 C0 1.34 0 0.68 0 0 Z " fill="#D2D6FE" transform="translate(227,96)"/>
<path d="M0 0 C1.30324219 -0.01160156 1.30324219 -0.01160156 2.6328125 -0.0234375 C3.37273437 0.10804687 4.11265625 0.23953125 4.875 0.375 C5.535 1.365 6.195 2.355 6.875 3.375 C3.875 4.375 3.875 4.375 0.4375 4.3125 C-2.95604275 4.37203584 -4.30478633 4.70376227 -7.125 6.375 C-7.785 6.375 -8.445 6.375 -9.125 6.375 C-10.115 6.87 -10.115 6.87 -11.125 7.375 C-8.89700407 1.99067649 -5.81061789 -0.05203538 0 0 Z " fill="#A7ABF7" transform="translate(343.125,104.625)"/>
<path d="M0 0 C0.99 0 1.98 0 3 0 C3 12.21 3 24.42 3 37 C3.66 37.33 4.32 37.66 5 38 C4.34 38.66 3.68 39.32 3 40 C1.68 38.68 0.36 37.36 -1 36 C-0.34 36 0.32 36 1 36 C1 24.78 1 13.56 1 2 C0.01 2 -0.98 2 -2 2 C-1.34 1.34 -0.68 0.68 0 0 Z " fill="#9FA7F9" transform="translate(99,50)"/>
<path d="M0 0 C9.59453303 5.96583144 9.59453303 5.96583144 13 11 C12.34 11 11.68 11 11 11 C10.67 11.66 10.34 12.32 10 13 C9.39671875 12.44570312 8.7934375 11.89140625 8.171875 11.3203125 C6.97304687 10.23363281 6.97304687 10.23363281 5.75 9.125 C4.96109375 8.40570313 4.1721875 7.68640625 3.359375 6.9453125 C1.27973832 5.23064517 -0.54419267 4.07019127 -3 3 C-2.01 2.67 -1.02 2.34 0 2 C0 1.34 0 0.68 0 0 Z " fill="#DBEAD7" transform="translate(91,130)"/>
<path d="M0 0 C0 4.29 0 8.58 0 13 C-4 12 -4 12 -5 11 C-5.42210497 5.76589836 -5.42210497 5.76589836 -5 3 C-2.09375 0 -2.09375 0 0 0 Z " fill="#FAFCF9" transform="translate(94,72)"/>
<path d="M0 0 C3.63 0 7.26 0 11 0 C11 0.33 11 0.66 11 1 C8.69 1.33 6.38 1.66 4 2 C4 12.56 4 23.12 4 34 C3.34 33.67 2.68 33.34 2 33 C2.33 23.1 2.66 13.2 3 3 C2.01 3 1.02 3 0 3 C0 2.01 0 1.02 0 0 Z " fill="#D6D9FD" transform="translate(196,96)"/>
<path d="M0 0 C0.66 0.66 1.32 1.32 2 2 C-0.95664519 3.4783226 -3.74229737 3.06032783 -7 3 C-7.12375 3.5775 -7.2475 4.155 -7.375 4.75 C-8.00648824 7.02335767 -8.88858191 8.9253529 -10 11 C-9.67 8.69 -9.34 6.38 -9 4 C-10.98 4.99 -10.98 4.99 -13 6 C-10.18931094 -0.48620553 -6.39847862 -0.40625261 0 0 Z " fill="#A6A9F8" transform="translate(258,105)"/>
<path d="M0 0 C0.66 0 1.32 0 2 0 C2 5.28 2 10.56 2 16 C4.31 16.66 6.62 17.32 9 18 C9 18.33 9 18.66 9 19 C6.69 19 4.38 19 2 19 C2 18.34 2 17.68 2 17 C1.34 17 0.68 17 0 17 C0 11.39 0 5.78 0 0 Z " fill="#868EF4" transform="translate(412,112)"/>
<path d="M0 0 C3.12492251 -0.05791844 6.24970766 -0.09356746 9.375 -0.125 C10.26445312 -0.14175781 11.15390625 -0.15851563 12.0703125 -0.17578125 C12.92109375 -0.18222656 13.771875 -0.18867187 14.6484375 -0.1953125 C15.82672119 -0.21102295 15.82672119 -0.21102295 17.02880859 -0.22705078 C19 0 19 0 21 2 C20.01 2 19.02 2 18 2 C17.67 2.66 17.34 3.32 17 4 C14.36 3.67 11.72 3.34 9 3 C9 2.34 9 1.68 9 1 C4.545 1.495 4.545 1.495 0 2 C0 1.34 0 0.68 0 0 Z " fill="#B7BCFC" transform="translate(301,96)"/>
<path d="M0 0 C0 0.66 0 1.32 0 2 C-2.91570168 3.45785084 -5.69559269 3.35172584 -8.9375 3.5625 C-10.18402344 3.64628906 -11.43054688 3.73007812 -12.71484375 3.81640625 C-14.80752405 3.93335747 -16.90405429 4 -19 4 C-18.34 3.01 -17.68 2.02 -17 1 C-14.1015625 0.48828125 -14.1015625 0.48828125 -10.625 0.3125 C-9.48289063 0.24675781 -8.34078125 0.18101563 -7.1640625 0.11328125 C-4.77727237 0.02782827 -2.38831936 0 0 0 Z " fill="#9DA2F4" transform="translate(152,60)"/>
<path d="M0 0 C0.66 0.33 1.32 0.66 2 1 C1.98839844 2.19238281 1.97679687 3.38476562 1.96484375 4.61328125 C1.95546408 6.17968594 1.94636407 7.74609231 1.9375 9.3125 C1.92912109 10.09818359 1.92074219 10.88386719 1.91210938 11.69335938 C1.90888672 12.45068359 1.90566406 13.20800781 1.90234375 13.98828125 C1.89710693 14.68477783 1.89187012 15.38127441 1.88647461 16.09887695 C1.93104009 18.22497968 1.93104009 18.22497968 3 21 C1.35 21 -0.3 21 -2 21 C-2 20.67 -2 20.34 -2 20 C-3.98 19.67 -5.96 19.34 -8 19 C-8 18.67 -8 18.34 -8 18 C-6.865625 17.87625 -5.73125 17.7525 -4.5625 17.625 C-3.386875 17.41875 -2.21125 17.2125 -1 17 C0.53266582 13.93466836 0.10276471 10.73245728 0.0625 7.375 C0.05798828 6.66859375 0.05347656 5.9621875 0.04882812 5.234375 C0.03703875 3.48954725 0.01910324 1.744763 0 0 Z " fill="#CED1FB" transform="translate(286,110)"/>
<path d="M0 0 C-0.33 4.95 -0.66 9.9 -1 15 C-1.66 15 -2.32 15 -3 15 C-4.34346122 10.96961634 -4.26676927 7.20161608 -4 3 C-1.84375 0 -1.84375 0 0 0 Z " fill="#868DF6" transform="translate(336,109)"/>
<path d="M0 0 C1.32608822 0.68096422 2.65686601 1.35330586 4 2 C4 2.66 4 3.32 4 4 C3.34 4 2.68 4 2 4 C1.67 4.66 1.34 5.32 1 6 C0.52949219 5.59007813 0.05898437 5.18015625 -0.42578125 4.7578125 C-1.04839844 4.21898438 -1.67101562 3.68015625 -2.3125 3.125 C-2.92738281 2.59132813 -3.54226562 2.05765625 -4.17578125 1.5078125 C-6.13498212 -0.1640447 -6.13498212 -0.1640447 -9 -2 C-5.04510221 -3.61125466 -3.39274703 -2.29010425 0 0 Z " fill="#E0F0D3" transform="translate(98,100)"/>
<path d="M0 0 C0 3.57643579 -0.25362774 7.12176091 -0.5 10.6875 C-0.57154297 11.7403418 -0.57154297 11.7403418 -0.64453125 12.81445312 C-0.76212152 14.54303016 -0.88094135 16.27152348 -1 18 C-3.82283845 15.58789201 -3.98279197 15.17494834 -4.375 11.1875 C-4.22715776 6.9701055 -3.06891774 3.06891774 0 0 Z " fill="#AAD489" transform="translate(84,103)"/>
<path d="M0 0 C1.9375 0.375 1.9375 0.375 4 1 C5.142115 3.28423 5.18162619 4.7397829 5.28125 7.28125 C5.31863281 8.12300781 5.35601562 8.96476562 5.39453125 9.83203125 C5.46484375 11.61067708 5.53515625 13.38932292 5.60546875 15.16796875 C5.64285156 16.00972656 5.68023437 16.85148437 5.71875 17.71875 C5.74904297 18.49154297 5.77933594 19.26433594 5.81054688 20.06054688 C5.89098578 22.08041983 5.89098578 22.08041983 7 24 C6.01 23.67 5.02 23.34 4 23 C3.92652344 21.60587891 3.92652344 21.60587891 3.8515625 20.18359375 C3.32250922 9.76833824 3.32250922 9.76833824 0 0 Z " fill="#CBD0FB" transform="translate(396,106)"/>
<path d="M0 0 C0.66 0.33 1.32 0.66 2 1 C2 5.95 2 10.9 2 16 C3.98 14.68 5.96 13.36 8 12 C7.34 13.65 6.68 15.3 6 17 C5.01 17 4.02 17 3 17 C3 17.66 3 18.32 3 19 C1.68 18.34 0.36 17.68 -1 17 C-0.34 16.67 0.32 16.34 1 16 C0.67 10.72 0.34 5.44 0 0 Z " fill="#A9D983" transform="translate(100,106)"/>
<path d="M0 0 C2.97 1.98 2.97 1.98 6 4 C5.01 4.495 5.01 4.495 4 5 C4 9.95 4 14.9 4 20 C3.67 20 3.34 20 3 20 C3 15.05 3 10.1 3 5 C1.02 5.99 1.02 5.99 -1 7 C-0.67 4.69 -0.34 2.38 0 0 Z " fill="#9ECE76" transform="translate(92,100)"/>
<path d="M0 0 C5.28 0.33 10.56 0.66 16 1 C16 1.66 16 2.32 16 3 C11.05 3 6.1 3 1 3 C0.67 2.01 0.34 1.02 0 0 Z " fill="#A2D17C" transform="translate(44,60)"/>
<path d="M0 0 C0.33 0 0.66 0 1 0 C0.95875 0.94875 0.9175 1.8975 0.875 2.875 C0.65026182 6.10244856 0.65026182 6.10244856 3 8 C0.36 8 -2.28 8 -5 8 C-5.33 7.01 -5.66 6.02 -6 5 C-5.34 5 -4.68 5 -4 5 C-3.67 4.01 -3.34 3.02 -3 2 C-2.01 2.66 -1.02 3.32 0 4 C0 2.68 0 1.36 0 0 Z " fill="#CFD1DC" transform="translate(102,172)"/>
<path d="M0 0 C0.33 0 0.66 0 1 0 C1.05391993 1.79133978 1.09275571 3.58313899 1.125 5.375 C1.14820312 6.37273437 1.17140625 7.37046875 1.1953125 8.3984375 C1 11 1 11 -1 13 C-1.64767793 15.57061311 -1.64767793 15.57061311 -2 18 C-1.01 18.33 -0.02 18.66 1 19 C-0.32 19.33 -1.64 19.66 -3 20 C-3 16.7 -3 13.4 -3 10 C-2.01 9.67 -1.02 9.34 0 9 C0 6.03 0 3.06 0 0 Z " fill="#AAD589" transform="translate(108,145)"/>
<path d="M0 0 C0.33 0 0.66 0 1 0 C1 1.65 1 3.3 1 5 C1.99 4.67 2.98 4.34 4 4 C4 5.65 4 7.3 4 9 C3.34 9 2.68 9 2 9 C2.33 10.98 2.66 12.96 3 15 C0.03090402 11.72698081 -0.34354794 9.61934238 -0.1875 5.25 C-0.16042969 4.26515625 -0.13335937 3.2803125 -0.10546875 2.265625 C-0.07066406 1.51796875 -0.03585937 0.7703125 0 0 Z " fill="#A0A7F7" transform="translate(270,113)"/>
<path d="M0 0 C3.63 0 7.26 0 11 0 C11.33 0.99 11.66 1.98 12 3 C8.09971775 5.60018816 4.52565431 5.15085514 0 5 C0 4.67 0 4.34 0 4 C2.64 3.67 5.28 3.34 8 3 C8 2.34 8 1.68 8 1 C5.36 1 2.72 1 0 1 C0 0.67 0 0.34 0 0 Z " fill="#C9CEFA" transform="translate(170,48)"/>
<path d="M0 0 C0.66 0 1.32 0 2 0 C2.6875 2.8125 2.6875 2.8125 3 6 C1.6875 7.875 1.6875 7.875 0 9 C-0.66 9 -1.32 9 -2 9 C-2 11.31 -2 13.62 -2 16 C-2.33 16 -2.66 16 -3 16 C-3.25 8.375 -3.25 8.375 -1 5 C-0.61500109 3.34450469 -0.27206865 1.6777567 0 0 Z " fill="#D3EAC2" transform="translate(91,66)"/>
<path d="M0 0 C0.99 0.33 1.98 0.66 3 1 C3.125 7.75 3.125 7.75 2 10 C1.01 10 0.02 10 -1 10 C-0.67 6.7 -0.34 3.4 0 0 Z " fill="#868EF4" transform="translate(322,104)"/>
<path d="M0 0 C0.70125 -0.02578125 1.4025 -0.0515625 2.125 -0.078125 C2.74375 0.03015625 3.3625 0.1384375 4 0.25 C4.66 1.24 5.32 2.23 6 3.25 C4.37536158 3.30395478 2.75021459 3.34277195 1.125 3.375 C0.22007812 3.39820312 -0.68484375 3.42140625 -1.6171875 3.4453125 C-4 3.25 -4 3.25 -6 1.25 C-3.78704384 0.14352192 -2.45327301 0.05411632 0 0 Z " fill="#A1A8FB" transform="translate(280,104.75)"/>
<path d="M0 0 C0.33 0 0.66 0 1 0 C1 2.64 1 5.28 1 8 C0.34 8 -0.32 8 -1 8 C-1 9.65 -1 11.3 -1 13 C-1.66 13 -2.32 13 -3 13 C-2.88610125 11.20759337 -2.75852313 9.41605165 -2.625 7.625 C-2.55539063 6.62726563 -2.48578125 5.62953125 -2.4140625 4.6015625 C-2 2 -2 2 0 0 Z " fill="#7EC24A" transform="translate(85,104)"/>
<path d="M0 0 C1.65 0 3.3 0 5 0 C5 1.65 5 3.3 5 5 C3.0625 5.5625 3.0625 5.5625 1 6 C0 5 0 5 -0.0625 2.4375 C-0.041875 1.633125 -0.02125 0.82875 0 0 Z " fill="#A3A7F5" transform="translate(363,94)"/>
<path d="M0 0 C4.50802601 1.25805377 7.4912812 2.90407165 11 6 C10.34 6 9.68 6 9 6 C8.67 6.66 8.34 7.32 8 8 C6.66372225 6.85760183 5.33104612 5.71098945 4 4.5625 C3.2575 3.92441406 2.515 3.28632813 1.75 2.62890625 C1.1725 2.09136719 0.595 1.55382812 0 1 C0 0.67 0 0.34 0 0 Z " fill="#DEE4F2" transform="translate(93,135)"/>
<path d="M0 0 C0.99 0.33 1.98 0.66 3 1 C2.44271087 4.34373475 1.64826111 7.03312999 0 10 C0.33 7.69 0.66 5.38 1 3 C-0.98 3.99 -0.98 3.99 -3 5 C-1.125 1.125 -1.125 1.125 0 0 Z " fill="#B0B3F8" transform="translate(248,106)"/>
<path d="M0 0 C0.99 0 1.98 0 3 0 C2.67 3.3 2.34 6.6 2 10 C1.34 10 0.68 10 0 10 C0 6.7 0 3.4 0 0 Z " fill="#828BF7" transform="translate(306,118)"/>
<path d="M0 0 C0.66 0 1.32 0 2 0 C2.33 5.28 2.66 10.56 3 16 C1.68 16 0.36 16 -1 16 C-0.34 15.67 0.32 15.34 1 15 C0.67 10.05 0.34 5.1 0 0 Z " fill="#E6F2DC" transform="translate(93,105)"/>
<path d="M0 0 C0.598125 0.350625 1.19625 0.70125 1.8125 1.0625 C1.8125 2.0525 1.8125 3.0425 1.8125 4.0625 C-1.1875 4.0625 -1.1875 4.0625 -3.375 2.0625 C-3.973125 1.4025 -4.57125 0.7425 -5.1875 0.0625 C-2.1875 -0.9375 -2.1875 -0.9375 0 0 Z " fill="#DDECDA" transform="translate(96.1875,84.9375)"/>
<path d="M0 0 C1.32 0.33 2.64 0.66 4 1 C3.34 1 2.68 1 2 1 C2 1.66 2 2.32 2 3 C2.66 3 3.32 3 4 3 C4 3.66 4 4.32 4 5 C1.36 5.33 -1.28 5.66 -4 6 C-3.01 5.34 -2.02 4.68 -1 4 C-0.27617533 1.94074861 -0.27617533 1.94074861 0 0 Z " fill="#B2B6F8" transform="translate(166,53)"/>
<path d="M0 0 C0.66 0 1.32 0 2 0 C3.26237731 2.52475462 3.09856404 4.31200466 3.0625 7.125 C3.05347656 8.03507812 3.04445313 8.94515625 3.03515625 9.8828125 C3.02355469 10.58148438 3.01195313 11.28015625 3 12 C2.67 12 2.34 12 2 12 C2 9.69 2 7.38 2 5 C1.34 5 0.68 5 0 5 C0 3.35 0 1.7 0 0 Z " fill="#94C970" transform="translate(86,106)"/>
<path d="M0 0 C3.3 0 6.6 0 10 0 C8.68 0.33 7.36 0.66 6 1 C5.67 1.99 5.34 2.98 5 4 C2.525 3.01 2.525 3.01 0 2 C0 1.34 0 0.68 0 0 Z " fill="#9098EF" transform="translate(160,52)"/>
<path d="M0 0 C1.65 0 3.3 0 5 0 C5 1.32 5 2.64 5 4 C3.35 4 1.7 4 0 4 C0 2.68 0 1.36 0 0 Z " fill="#89BF5D" transform="translate(31,52)"/>
<path d="M0 0 C0.99 0.33 1.98 0.66 3 1 C3 2.32 3 3.64 3 5 C3.33 5.66 3.66 6.32 4 7 C0.83884224 5.63016497 0.0072908 5.0109362 -2 2 C-1.34 1.34 -0.68 0.68 0 0 Z " fill="#D2EABF" transform="translate(96,120)"/>
<path d="M0 0 C1 2 1 2 0.0625 5.125 C-0.288125 6.07375 -0.63875 7.0225 -1 8 C-1.66 8 -2.32 8 -3 8 C-3.36923077 3.44615385 -3.36923077 3.44615385 -1.5 1.1875 C-1.005 0.795625 -0.51 0.40375 0 0 Z " fill="#8890F7" transform="translate(274,110)"/>
<path d="M0 0 C0.66 0 1.32 0 2 0 C1.67 1.32 1.34 2.64 1 4 C-2.3 3.67 -5.6 3.34 -9 3 C-9 2.67 -9 2.34 -9 2 C-6.94921875 1.77213542 -4.8984375 1.54427083 -2.84765625 1.31640625 C-0.98859771 1.18113386 -0.98859771 1.18113386 0 0 Z " fill="#B7B9F7" transform="translate(261,126)"/>
<path d="M0 0 C-0.66 0.66 -1.32 1.32 -2 2 C-4.1640625 1.9765625 -4.1640625 1.9765625 -6.625 1.625 C-7.44226563 1.51414062 -8.25953125 1.40328125 -9.1015625 1.2890625 C-9.72804688 1.19367188 -10.35453125 1.09828125 -11 1 C-11 0.67 -11 0.34 -11 0 C-3.375 -1.125 -3.375 -1.125 0 0 Z " fill="#9BA2F9" transform="translate(321,116)"/>
<path d="M0 0 C-0.33 2.31 -0.66 4.62 -1 7 C-1.66 6.01 -2.32 5.02 -3 4 C-3.66 4.66 -4.32 5.32 -5 6 C-5 4.68 -5 3.36 -5 2 C-2 0 -2 0 0 0 Z " fill="#959BF6" transform="translate(249,109)"/>
</svg>
